<?xml version="1.0" standalone="no"?>
<!DOCTYPE svg PUBLIC "-//W3C//DTD SVG 20010904//EN"
 "http://www.w3.org/TR/2001/REC-SVG-20010904/DTD/svg10.dtd">
<svg version="1.0" xmlns="http://www.w3.org/2000/svg"
 width="256.000000pt" height="256.000000pt" viewBox="0 0 256.000000 256.000000"
 preserveAspectRatio="xMidYMid meet">
<metadata>
Created by potrace 1.11, written by Peter Selinger 2001-2013
</metadata>
<g transform="translate(0.000000,256.000000) scale(0.100000,-0.100000)"
fill="#000000" stroke="none">
<path d="M680 1920 c-327 -109 -602 -203 -610 -208 -19 -12 -25 -49 -10 -67 6
-8 74 -35 150 -60 l139 -46 -34 -62 c-34 -63 -59 -146 -68 -227 -4 -34 -14
-55 -41 -83 -28 -30 -36 -47 -36 -75 0 -43 22 -89 52 -110 17 -13 20 -22 15
-63 -14 -118 -82 -256 -176 -360 -29 -33 -51 -65 -48 -73 6 -15 141 -84 177
-89 34 -6 69 14 114 64 68 75 81 116 81 264 0 72 -3 160 -8 198 -4 38 -3 67 2
67 5 0 16 16 26 36 23 49 15 108 -20 144 -25 26 -26 29 -16 90 26 158 75 227
205 289 165 79 665 271 704 271 24 0 49 -20 56 -46 11 -37 -23 -62 -141 -103
-133 -46 -521 -200 -545 -216 -13 -9 46 -32 310 -119 l327 -108 599 201 c330
110 607 207 615 216 11 11 13 21 5 42 -9 25 -43 38 -599 224 -325 109 -599
200 -610 202 -11 3 -288 -84 -615 -193z"/>
<path d="M1690 1229 c-195 -66 -372 -122 -393 -125 -30 -4 -112 20 -398 116
-199 66 -367 120 -375 120 -9 0 -16 -18 -21 -52 -9 -67 -7 -78 21 -103 63 -55
83 -184 39 -244 -13 -16 -21 -36 -18 -43 7 -18 89 -72 157 -103 61 -28 225
-72 298 -81 25 -3 72 -9 105 -13 61 -9 326 -6 403 4 274 34 501 138 547 249
19 45 21 396 3 395 -7 0 -173 -54 -368 -120z"/>
</g>
</svg>
